<svg viewBox="0 0 100 100" fill="none" xmlns="http://www.w3.org/2000/svg">
  <rect width="100" height="100" fill="black" />
  <path id="neural-petal" d="M 50 42 C 50 15, 85 15, 80 45 C 75 75, 55 65, 50 42" fill="white" />
  <g transform="rotate(60, 50, 50)">
    <path d="M 50 42 C 50 15, 85 15, 80 45 C 75 75, 55 65, 50 42" fill="white" />
  </g>
  <g transform="rotate(120, 50, 50)">
    <path d="M 50 42 C 50 15, 85 15, 80 45 C 75 75, 55 65, 50 42" fill="white" />
  </g>
  <g transform="rotate(180, 50, 50)">
    <path d="M 50 42 C 50 15, 85 15, 80 45 C 75 75, 55 65, 50 42" fill="white" />
  </g>
  <g transform="rotate(240, 50, 50)">
    <path d="M 50 42 C 50 15, 85 15, 80 45 C 75 75, 55 65, 50 42" fill="white" />
  </g>
  <g transform="rotate(300, 50, 50)">
    <path d="M 50 42 C 50 15, 85 15, 80 45 C 75 75, 55 65, 50 42" fill="white" />
  </g>
</svg>
